<?xml version="1.0" encoding="UTF-8" standalone="no"?>
<!-- Created with Inkscape (http://www.inkscape.org/) -->

<svg
   version="1.1"
   id="svg2"
   width="933.33331"
   height="533.33331"
   viewBox="0 0 933.33331 533.33331"
   sodipodi:docname="Connectas AB.ai"
   xmlns:inkscape="http://www.inkscape.org/namespaces/inkscape"
   xmlns:sodipodi="http://sodipodi.sourceforge.net/DTD/sodipodi-0.dtd"
   xmlns="http://www.w3.org/2000/svg"
   xmlns:svg="http://www.w3.org/2000/svg">
  <defs
     id="defs6">
    <clipPath
       clipPathUnits="userSpaceOnUse"
       id="clipPath16">
      <path
         d="M 0,400 H 700 V 0 H 0 Z"
         id="path14" />
    </clipPath>
  </defs>
  <sodipodi:namedview
     id="namedview4"
     pagecolor="#ffffff"
     bordercolor="#000000"
     borderopacity="0.25"
     inkscape:showpageshadow="2"
     inkscape:pageopacity="0.0"
     inkscape:pagecheckerboard="0"
     inkscape:deskcolor="#d1d1d1" />
  <g
     id="g8"
     inkscape:groupmode="layer"
     inkscape:label="Connectas AB"
     transform="matrix(1.3333333,0,0,-1.3333333,0,533.33333)">
    <g
       id="g10">
      <g
         id="g12"
         clip-path="url(#clipPath16)">
        <g
           id="g18"
           transform="translate(30.6912,100.654)">
          <path
             d="m 0,0 c 3.793,6.47 8.946,11.521 15.456,15.157 6.51,3.634 13.639,5.451 21.388,5.451 8.867,0 16.753,-2.177 23.664,-6.53 C 67.417,9.724 72.429,3.553 75.545,-4.433 H 59.131 C 56.973,-0.042 53.978,3.235 50.144,5.391 46.309,7.548 41.876,8.627 36.844,8.627 31.333,8.627 26.42,7.387 22.107,4.912 17.793,2.435 14.417,-1.12 11.982,-5.751 9.544,-10.385 8.327,-15.777 8.327,-21.927 c 0,-6.152 1.217,-11.544 3.655,-16.175 2.435,-4.635 5.811,-8.208 10.125,-10.724 4.313,-2.515 9.226,-3.775 14.737,-3.775 5.032,0 9.465,1.08 13.3,3.236 3.834,2.157 6.829,5.431 8.987,9.825 h 16.414 c -3.116,-7.988 -8.128,-14.139 -15.037,-18.452 -6.911,-4.313 -14.797,-6.471 -23.664,-6.471 -7.829,0 -14.977,1.817 -21.447,5.453 -6.47,3.633 -11.604,8.687 -15.397,15.156 -3.794,6.471 -5.691,13.78 -5.691,21.927 0,8.148 1.897,15.457 5.691,21.927"
             style="fill:#017477;fill-opacity:1;fill-rule:nonzero;stroke:none"
             id="path20" />
        </g>
        <g
           id="g22"
           transform="translate(160.6918,50.2107)">
          <path
             d="m 0,0 c 3.075,1.678 5.573,4.193 7.489,7.549 1.917,3.354 2.875,7.428 2.875,12.221 0,4.792 -0.918,8.845 -2.755,12.161 -1.839,3.314 -4.274,5.811 -7.309,7.489 -3.037,1.677 -6.311,2.516 -9.825,2.516 -3.516,0 -6.769,-0.839 -9.764,-2.516 -2.996,-1.678 -5.374,-4.175 -7.129,-7.489 -1.759,-3.316 -2.638,-7.369 -2.638,-12.161 0,-7.111 1.817,-12.602 5.453,-16.475 3.633,-3.876 8.207,-5.811 13.718,-5.811 3.515,0 6.809,0.838 9.885,2.516 m -26.778,-10.124 c -5.033,2.834 -8.987,6.829 -11.862,11.982 -2.876,5.151 -4.314,11.122 -4.314,17.912 0,6.709 1.478,12.659 4.434,17.852 2.954,5.192 6.988,9.185 12.102,11.982 5.11,2.796 10.822,4.194 17.133,4.194 6.309,0 12.02,-1.398 17.134,-4.194 5.11,-2.797 9.146,-6.79 12.102,-11.982 2.954,-5.193 4.433,-11.143 4.433,-17.852 0,-6.71 -1.518,-12.662 -4.553,-17.852 -3.037,-5.194 -7.17,-9.208 -12.402,-12.042 -5.232,-2.837 -11.004,-4.254 -17.314,-4.254 -6.231,0 -11.862,1.417 -16.893,4.254"
             style="fill:#017477;fill-opacity:1;fill-rule:nonzero;stroke:none"
             id="path24" />
        </g>
        <g
           id="g26"
           transform="translate(245.8811,100.7732)">
          <path
             d="m 0,0 c 4.114,-2.157 7.328,-5.352 9.646,-9.585 2.316,-4.235 3.474,-9.346 3.474,-15.336 V -63.862 H -0.418 v 36.903 c 0,5.911 -1.479,10.443 -4.434,13.6 -2.956,3.154 -6.991,4.732 -12.102,4.732 -5.113,0 -9.166,-1.578 -12.162,-4.732 -2.995,-3.157 -4.493,-7.689 -4.493,-13.6 V -63.862 H -47.267 V 2.157 h 13.658 v -7.548 c 2.237,2.714 5.093,4.832 8.568,6.35 3.474,1.517 7.169,2.276 11.083,2.276 C -8.767,3.235 -4.114,2.157 0,0"
             style="fill:#017477;fill-opacity:1;fill-rule:nonzero;stroke:none"
             id="path28" />
        </g>
        <g
           id="g30"
           transform="translate(323.6401,100.7732)">
          <path
             d="m 0,0 c 4.114,-2.157 7.328,-5.352 9.646,-9.585 2.316,-4.235 3.474,-9.346 3.474,-15.336 V -63.862 H -0.418 v 36.903 c 0,5.911 -1.479,10.443 -4.434,13.6 -2.956,3.154 -6.991,4.732 -12.102,4.732 -5.113,0 -9.166,-1.578 -12.162,-4.732 -2.995,-3.157 -4.493,-7.689 -4.493,-13.6 V -63.862 H -47.267 V 2.157 h 13.658 v -7.548 c 2.237,2.714 5.093,4.832 8.568,6.35 3.474,1.517 7.169,2.276 11.083,2.276 C -8.767,3.235 -4.114,2.157 0,0"
             style="fill:#017477;fill-opacity:1;fill-rule:nonzero;stroke:none"
             id="path32" />
        </g>
        <g
           id="g34"
           transform="translate(400.3825,75.8518)">
          <path
             d="m 0,0 c -0.08,5.032 -1.878,9.065 -5.391,12.101 -3.517,3.035 -7.869,4.553 -13.06,4.553 -4.714,0 -8.747,-1.497 -12.102,-4.493 C -33.909,9.166 -35.905,5.111 -36.544,0 Z m 13.78,-11.023 h -50.444 c 0.399,-5.272 2.355,-9.508 5.871,-12.7 3.515,-3.196 7.828,-4.794 12.94,-4.794 7.348,0 12.541,3.075 15.577,9.227 h 14.738 c -1.998,-6.072 -5.614,-11.045 -10.844,-14.918 -5.232,-3.876 -11.723,-5.811 -19.471,-5.811 -6.31,0 -11.963,1.417 -16.954,4.253 -4.993,2.835 -8.907,6.83 -11.742,11.983 -2.836,5.151 -4.253,11.122 -4.253,17.912 0,6.788 1.378,12.76 4.133,17.912 2.756,5.152 6.629,9.125 11.622,11.922 4.992,2.795 10.725,4.194 17.194,4.194 6.231,0 11.782,-1.359 16.655,-4.074 4.871,-2.717 8.666,-6.53 11.382,-11.443 2.715,-4.912 4.074,-10.564 4.074,-16.953 0,-2.477 -0.161,-4.714 -0.478,-6.71"
             style="fill:#017477;fill-opacity:1;fill-rule:nonzero;stroke:none"
             id="path36" />
        </g>
        <g
           id="g38"
           transform="translate(427.6391,87.8931)">
          <path
             d="m 0,0 c 2.756,5.152 6.57,9.125 11.442,11.922 4.872,2.795 10.464,4.194 16.775,4.194 7.987,0 14.598,-1.899 19.83,-5.692 5.23,-3.795 8.765,-9.207 10.604,-16.235 H 43.913 c -1.198,3.274 -3.115,5.83 -5.751,7.669 -2.636,1.836 -5.951,2.755 -9.945,2.755 -5.591,0 -10.046,-1.977 -13.359,-5.931 -3.316,-3.954 -4.973,-9.486 -4.973,-16.594 0,-7.111 1.657,-12.662 4.973,-16.655 3.313,-3.996 7.768,-5.991 13.359,-5.991 7.908,0 13.14,3.474 15.696,10.424 h 14.738 c -1.918,-6.71 -5.511,-12.042 -10.784,-15.995 -5.272,-3.955 -11.823,-5.931 -19.65,-5.931 -6.311,0 -11.903,1.417 -16.775,4.253 -4.872,2.835 -8.686,6.829 -11.442,11.982 -2.756,5.152 -4.133,11.122 -4.133,17.913 0,6.788 1.377,12.76 4.133,17.912"
             style="fill:#017477;fill-opacity:1;fill-rule:nonzero;stroke:none"
             id="path40" />
        </g>
        <g
           id="g42"
           transform="translate(515.8839,91.7874)">
          <path
             d="m 0,0 v -36.545 c 0,-2.476 0.578,-4.254 1.738,-5.331 1.157,-1.078 3.133,-1.618 5.931,-1.618 h 8.387 V -54.877 H 5.271 c -6.152,0 -10.863,1.438 -14.138,4.314 -3.276,2.875 -4.913,7.549 -4.913,14.018 V 0 h -7.787 v 11.143 h 7.787 V 27.558 H 0 V 11.143 H 16.056 L 16.056,0 Z"
             style="fill:#017477;fill-opacity:1;fill-rule:nonzero;stroke:none"
             id="path44" />
        </g>
        <g
           id="g46"
           transform="translate(591.1885,81.8421)">
          <path
             d="m 0,0 c -1.878,3.355 -4.334,5.911 -7.369,7.669 -3.036,1.756 -6.311,2.635 -9.824,2.635 -3.517,0 -6.792,-0.859 -9.827,-2.575 -3.036,-1.719 -5.492,-4.235 -7.368,-7.549 -1.877,-3.315 -2.816,-7.249 -2.816,-11.802 0,-4.553 0.939,-8.548 2.816,-11.981 1.876,-3.436 4.352,-6.051 7.428,-7.848 3.075,-1.798 6.331,-2.696 9.767,-2.696 3.513,0 6.788,0.877 9.824,2.636 3.035,1.755 5.491,4.332 7.369,7.727 1.875,3.395 2.816,7.369 2.816,11.923 C 2.816,-7.309 1.875,-3.355 0,0 m -47.089,5.991 c 2.756,5.111 6.511,9.086 11.263,11.922 4.752,2.835 10.006,4.254 15.757,4.254 5.191,0 9.724,-1.019 13.598,-3.056 3.875,-2.037 6.968,-4.574 9.287,-7.608 v 9.586 h 13.778 v -66.02 H 2.816 v 9.824 c -2.319,-3.115 -5.472,-5.711 -9.467,-7.787 -3.994,-2.077 -8.547,-3.115 -13.658,-3.115 -5.674,0 -10.865,1.457 -15.577,4.373 -4.714,2.915 -8.447,6.989 -11.203,12.221 -2.755,5.231 -4.133,11.162 -4.133,17.793 0,6.629 1.378,12.5 4.133,17.613"
             style="fill:#017477;fill-opacity:1;fill-rule:nonzero;stroke:none"
             id="path48" />
        </g>
        <g
           id="g50"
           transform="translate(635.7599,38.6485)">
          <path
             d="m 0,0 c -4.114,1.875 -7.369,4.433 -9.765,7.669 -2.397,3.234 -3.675,6.848 -3.835,10.842 H 0.54 c 0.238,-2.796 1.575,-5.134 4.013,-7.009 2.436,-1.878 5.491,-2.815 9.167,-2.815 3.833,0 6.808,0.737 8.925,2.216 2.116,1.477 3.175,3.374 3.175,5.691 0,2.476 -1.179,4.314 -3.534,5.512 -2.357,1.198 -6.092,2.516 -11.203,3.954 -4.953,1.357 -8.986,2.675 -12.101,3.954 -3.115,1.277 -5.811,3.235 -8.089,5.871 -2.275,2.636 -3.413,6.111 -3.413,10.424 0,3.514 1.037,6.729 3.114,9.646 2.077,2.915 5.052,5.212 8.926,6.889 3.875,1.677 8.329,2.516 13.36,2.516 7.508,0 13.559,-1.898 18.153,-5.691 4.591,-3.795 7.049,-8.968 7.369,-15.517 h -13.66 c -0.24,2.955 -1.438,5.312 -3.595,7.069 -2.156,1.757 -5.072,2.637 -8.747,2.637 -3.593,0 -6.349,-0.68 -8.267,-2.037 -1.917,-1.359 -2.875,-3.156 -2.875,-5.392 0,-1.758 0.639,-3.235 1.917,-4.433 1.277,-1.198 2.835,-2.138 4.674,-2.816 1.835,-0.679 4.551,-1.539 8.147,-2.576 4.793,-1.279 8.726,-2.576 11.802,-3.894 3.074,-1.318 5.73,-3.256 7.967,-5.811 2.236,-2.558 3.395,-5.952 3.475,-10.185 0,-3.755 -1.038,-7.11 -3.115,-10.065 C 34.046,3.693 31.111,1.378 27.318,-0.3 23.524,-1.978 19.07,-2.816 13.958,-2.816 8.766,-2.816 4.113,-1.877 0,0"
             style="fill:#017477;fill-opacity:1;fill-rule:nonzero;stroke:none"
             id="path52" />
        </g>
        <g
           id="g54"
           transform="translate(441.9323,211.9936)">
          <path
             d="m 0,0 c 16.928,37.432 9.355,81.216 -19.175,111.378 -17.749,18.754 -40.371,29.081 -67.886,30.983 -2.117,0.151 -3.673,2.03 -3.424,4.137 l 0.151,1.242 c 0.378,3.23 2.193,4.689 5.423,4.397 31.534,-2.841 57.072,-15.513 76.593,-38.015 45.415,-52.329 31.274,-134.14 -29.028,-168.374 -67.604,-38.361 -150.419,2.344 -163.88,78.202 -0.885,4.98 -1.231,9.798 -1.037,14.454 0.087,1.999 1.783,3.533 3.771,3.425 l 1.037,-0.065 c 3.014,-0.173 4.602,-1.772 4.785,-4.786 1.448,-25.17 10.49,-46.636 27.137,-64.396 C -116.52,-79.725 -29.622,-65.466 0,0"
             style="fill:#017477;fill-opacity:1;fill-rule:nonzero;stroke:none"
             id="path56" />
        </g>
        <g
           id="g58"
           transform="translate(436.9846,221.0248)">
          <path
             d="m 0,0 c -23.194,-62.873 -104.54,-79.931 -151.975,-32.96 -2.096,2.064 -2.236,4.268 -0.432,6.601 l 0.637,0.821 c 1.188,1.545 3.414,1.815 4.948,0.605 2.02,-1.588 3.813,-3.068 5.38,-4.44 33.348,-29.287 84.241,-27.083 114.392,5.261 33.197,35.617 29.221,92.105 -9.637,121.932 -12.844,9.863 -27.925,15.567 -45.242,17.112 -5.315,0.475 -5.672,9.69 1.437,9.625 2.322,-0.021 4.645,-0.205 6.946,-0.54 C -14.768,115.332 20.504,55.602 0,0"
             style="fill:#017477;fill-opacity:1;fill-rule:nonzero;stroke:none"
             id="path60" />
        </g>
        <g
           id="g62"
           transform="translate(356.611,327.2712)">
          <path
             d="m 0,0 c 59.74,-6.428 87.838,-76.711 48.764,-121.932 -13.525,-15.654 -31.155,-24.285 -52.902,-25.884 -3.154,-0.227 -4.904,1.232 -5.239,4.375 l -0.13,1.188 c -0.226,2.053 1.318,3.868 3.382,3.987 21.595,1.21 38.426,9.701 50.492,25.473 16.713,21.833 17.739,51.681 2.496,74.605 -11.051,16.625 -27.396,26.229 -49.056,28.822 -2.031,0.248 -3.457,2.096 -3.187,4.116 l 0.151,1.145 C -4.818,-1.037 -3.079,0.335 0,0"
             style="fill:#017477;fill-opacity:1;fill-rule:nonzero;stroke:none"
             id="path64" />
        </g>
        <g
           id="g66"
           transform="translate(396.8626,253.5631)">
          <path
             d="m 0,0 c 0,-25.884 -20.99,-46.874 -46.874,-46.874 -25.883,0 -46.873,20.99 -46.873,46.874 0,25.884 20.99,46.874 46.873,46.874 C -20.99,46.874 0,25.884 0,0"
             style="fill:#017477;fill-opacity:1;fill-rule:nonzero;stroke:none"
             id="path68" />
        </g>
      </g>
    </g>
  </g>
</svg>
